<?xml version="1.0" encoding="UTF-8" standalone="no"?>
<!DOCTYPE svg PUBLIC "-//W3C//DTD SVG 1.1//EN" "http://www.w3.org/Graphics/SVG/1.1/DTD/svg11.dtd">
<svg width="100%" height="100%" viewBox="0 0 1280 300" version="1.1" xmlns="http://www.w3.org/2000/svg" xmlns:xlink="http://www.w3.org/1999/xlink" xml:space="preserve" xmlns:serif="http://www.serif.com/" style="fill-rule:evenodd;clip-rule:evenodd;stroke-linejoin:round;stroke-miterlimit:2;">
    <g transform="matrix(0.1,0,0,-0.1,0,300)">
        <path d="M4125,2985C4141,2972 4143,2966 4132,2950C4125,2939 4124,2930 4129,2930C4138,2930 4150,2953 4150,2970C4150,2975 4140,2984 4128,2990C4106,3001 4106,3001 4125,2985Z" style="fill:white;fill-rule:nonzero;"/>
        <path d="M4084,2975C4076,2955 4086,2930 4102,2930C4112,2930 4112,2933 4101,2939C4093,2944 4089,2957 4093,2969C4099,2993 4092,2998 4084,2975Z" style="fill:white;fill-rule:nonzero;"/>
        <path d="M4000,2936C4000,2927 4007,2920 4016,2920C4025,2920 4030,2925 4028,2932C4022,2950 4000,2953 4000,2936Z" style="fill:white;fill-rule:nonzero;"/>
        <path d="M4305,2939C4301,2933 4301,2926 4304,2923C4307,2919 4310,2922 4310,2929C4310,2938 4320,2941 4339,2938C4356,2936 4367,2937 4364,2942C4357,2954 4312,2952 4305,2939Z" style="fill:white;fill-rule:nonzero;"/>
        <path d="M4365,2901C4358,2878 4331,2873 4312,2892C4304,2900 4300,2900 4300,2893C4300,2881 4323,2870 4345,2870C4360,2870 4385,2908 4377,2917C4374,2919 4369,2912 4365,2901Z" style="fill:white;fill-rule:nonzero;"/>
        <path d="M4016,2848C4007,2836 4000,2821 4000,2815C4001,2810 4008,2817 4016,2833C4026,2851 4039,2860 4055,2860C4071,2860 4084,2851 4094,2833C4102,2817 4109,2810 4110,2815C4110,2837 4078,2870 4055,2870C4042,2870 4024,2860 4016,2848Z" style="fill:white;fill-rule:nonzero;"/>
        <path d="M4165,2845C4151,2832 4140,2815 4140,2808C4140,2801 4146,2804 4152,2815C4179,2865 4237,2875 4277,2838C4290,2826 4300,2819 4300,2823C4300,2826 4290,2838 4278,2850C4247,2878 4195,2876 4165,2845Z" style="fill:white;fill-rule:nonzero;"/>
        <path d="M4242,2829C4252,2824 4264,2812 4269,2802C4275,2793 4280,2790 4280,2797C4280,2803 4273,2816 4264,2824C4256,2833 4243,2840 4237,2840C4230,2840 4233,2835 4242,2829Z" style="fill:white;fill-rule:nonzero;"/>
        <path d="M4301,2783C4301,2765 4291,2741 4280,2730C4269,2719 4264,2710 4270,2710C4288,2710 4312,2758 4307,2787C4303,2814 4303,2814 4301,2783Z" style="fill:white;fill-rule:nonzero;"/>
        <path d="M4022,2784C4032,2774 4042,2768 4044,2771C4047,2774 4039,2782 4027,2789C4006,2802 4006,2801 4022,2784Z" style="fill:white;fill-rule:nonzero;"/>
        <path d="M4076,2785C4065,2777 4061,2770 4067,2770C4073,2770 4083,2777 4090,2785C4106,2804 4101,2804 4076,2785Z" style="fill:white;fill-rule:nonzero;"/>
        <path d="M4120,2750C4090,2720 4093,2667 4126,2641C4141,2629 4162,2620 4174,2621C4191,2622 4189,2623 4167,2630C4124,2643 4110,2659 4110,2695C4110,2735 4136,2760 4178,2760C4234,2760 4259,2696 4218,2653C4206,2640 4202,2630 4208,2630C4224,2630 4250,2671 4250,2696C4250,2708 4241,2729 4229,2744C4203,2777 4150,2780 4120,2750Z" style="fill:white;fill-rule:nonzero;"/>
        <path d="M4198,2722C4207,2712 4217,2705 4219,2706C4225,2711 4199,2740 4189,2740C4184,2740 4188,2732 4198,2722Z" style="fill:white;fill-rule:nonzero;"/>
        <path d="M4352,2698C4358,2680 4380,2677 4380,2694C4380,2703 4373,2710 4364,2710C4355,2710 4350,2705 4352,2698Z" style="fill:white;fill-rule:nonzero;"/>
        <path d="M3995,2630C3980,2613 3979,2606 3988,2585C3999,2560 4022,2554 4054,2566C4063,2569 4070,2576 4070,2581C4070,2586 4062,2585 4051,2579C4016,2556 3974,2594 4000,2625C4017,2645 4047,2644 4059,2623C4065,2613 4070,2610 4070,2616C4070,2631 4048,2650 4030,2650C4021,2650 4005,2641 3995,2630Z" style="fill:white;fill-rule:nonzero;"/>
        <path d="M4307,2622C4278,2591 4290,2529 4325,2530C4330,2530 4327,2535 4318,2541C4297,2553 4294,2600 4312,2618C4319,2625 4333,2630 4345,2630C4357,2630 4371,2625 4378,2618C4396,2600 4393,2553 4373,2541C4363,2535 4360,2530 4366,2530C4401,2529 4412,2596 4382,2623C4358,2645 4327,2644 4307,2622Z" style="fill:white;fill-rule:nonzero;"/>
        <path d="M4355,2600C4358,2595 4363,2590 4366,2590C4368,2590 4370,2595 4370,2600C4370,2606 4365,2610 4359,2610C4354,2610 4352,2606 4355,2600Z" style="fill:white;fill-rule:nonzero;"/>
        <path d="M4112,2568C4118,2550 4140,2547 4140,2564C4140,2573 4133,2580 4124,2580C4115,2580 4110,2575 4112,2568Z" style="fill:white;fill-rule:nonzero;"/>
        <path d="M6606,2555C6513,2522 6457,2417 6480,2320C6506,2213 6596,2153 6716,2163C6833,2172 6910,2253 6910,2367C6910,2435 6892,2477 6847,2517C6788,2569 6689,2585 6606,2555Z" style="fill:white;fill-rule:nonzero;"/>
        <path d="M8835,2555C8708,2511 8665,2337 8756,2232C8803,2177 8861,2156 8946,2163C9063,2172 9140,2253 9140,2367C9140,2435 9122,2477 9077,2517C9017,2569 8919,2585 8835,2555Z" style="fill:white;fill-rule:nonzero;"/>
        <path d="M3881,2493C3866,2415 3866,2412 3900,2405C3917,2401 3930,2394 3930,2388C3930,2382 3921,2326 3909,2264C3893,2177 3884,2149 3871,2145C3861,2142 3843,2129 3831,2116L3808,2092L3745,2121C3628,2176 3484,2158 3393,2076L3346,2033L3296,2053C3192,2092 3074,2056 3030,1970C3006,1923 3004,1845 3025,1794C3043,1749 3135,1658 3188,1631C3211,1619 3230,1608 3230,1605C3230,1603 3203,1564 3170,1518C3095,1414 3020,1277 2984,1180C2958,1112 2956,1093 2956,975C2956,823 2973,763 3041,686C3126,590 3206,561 3423,550C3510,546 3583,540 3586,537C3589,534 3580,469 3566,392C3552,315 3540,233 3540,209C3541,116 3609,32 3702,10C3812,-17 3924,44 3958,150C3964,169 3981,253 3995,335C4033,560 4023,537 4081,542C4221,556 4257,737 4131,793C4106,804 4084,813 4083,814C4082,815 4093,883 4108,965L4135,1114L4185,1128C4274,1153 4316,1210 4306,1294C4300,1342 4301,1347 4329,1374C4356,1400 4361,1401 4391,1391C4551,1335 4701,1501 4631,1655C4611,1701 4552,1757 4514,1766C4501,1770 4463,1770 4431,1768C4360,1763 4311,1730 4279,1668C4251,1614 4255,1515 4287,1472L4307,1444L4281,1412C4255,1382 4252,1381 4222,1392C4204,1399 4190,1409 4191,1415C4191,1420 4228,1625 4274,1870L4356,2315L4428,2309L4439,2376C4446,2413 4447,2446 4443,2450C4436,2456 3930,2550 3904,2550C3898,2550 3888,2524 3881,2493ZM4164,2356C4240,2342 4305,2328 4308,2325C4311,2322 4276,2113 4229,1860L4145,1401L4095,1389C4068,1383 3991,1375 3924,1373L3803,1368L3810,1416C3815,1458 3824,1473 3872,1521C3911,1559 3934,1593 3947,1629C3959,1666 3974,1687 3996,1701C4046,1731 4119,1816 4145,1873C4217,2026 4122,2195 3974,2178C3935,2173 3935,2168 3956,2279C3976,2392 3976,2391 4002,2385C4015,2383 4087,2369 4164,2356ZM4064,2111C4130,2074 4147,1982 4105,1893C4082,1843 3997,1740 3979,1740C3958,1740 3973,1784 4005,1816C4047,1857 4080,1919 4080,1955C4080,1989 4055,2037 4031,2050C4000,2066 3948,2062 3911,2039L3877,2019L3835,2061L3869,2090C3926,2139 4001,2147 4064,2111ZM3729,2086C3840,2028 3929,1877 3930,1748C3930,1647 3849,1532 3742,1482C3667,1447 3540,1444 3469,1476C3327,1541 3265,1679 3304,1844C3334,1972 3413,2066 3520,2101C3561,2115 3691,2105 3729,2086ZM3293,2009C3318,1998 3319,1996 3304,1968C3292,1944 3285,1940 3267,1947C3255,1951 3225,1955 3201,1955C3144,1954 3110,1918 3110,1857C3110,1802 3139,1757 3197,1720C3271,1673 3285,1627 3214,1665C3121,1715 3050,1808 3050,1879C3050,1915 3074,1972 3096,1991C3141,2028 3233,2036 3293,2009ZM4006,2012C4026,1999 4041,1959 4034,1937C4027,1913 3978,1841 3969,1840C3966,1840 3951,1872 3936,1912L3908,1984L3930,2002C3953,2021 3987,2025 4006,2012ZM3245,1910C3269,1901 3271,1896 3264,1867C3260,1850 3255,1813 3251,1787L3245,1738L3203,1769C3179,1786 3158,1811 3154,1825C3145,1862 3158,1900 3183,1910C3212,1922 3214,1922 3245,1910ZM4528,1700C4572,1673 4603,1604 4594,1554C4590,1534 4574,1503 4558,1484C4471,1385 4310,1448 4310,1582C4310,1685 4438,1755 4528,1700ZM3301,1564C3308,1549 3337,1518 3363,1494C3447,1419 3591,1390 3706,1425C3733,1433 3758,1440 3763,1440C3767,1440 3767,1416 3764,1386L3758,1333L3806,1327C3864,1319 4053,1334 4128,1351C4173,1362 4185,1361 4214,1347C4280,1316 4283,1234 4220,1189C4170,1153 4007,1137 3773,1143C3571,1148 3560,1147 3560,1130C3560,1115 3571,1110 3628,1105C3709,1096 3769,1065 3801,1013C3819,985 3825,957 3828,891C3831,837 3838,799 3846,789C3857,777 3890,771 3988,766C4105,760 4117,757 4140,735C4177,698 4173,646 4131,608L4098,579L3717,585C3304,593 3246,599 3157,647C3057,702 3002,802 2993,945C2985,1078 3033,1227 3142,1399C3191,1478 3273,1590 3281,1590C3284,1590 3293,1578 3301,1564ZM4086,1078C4082,1060 4070,992 4058,927L4036,809L3956,812L3875,815L3869,900C3864,984 3839,1057 3808,1077C3800,1082 3852,1090 3930,1096C4004,1102 4071,1108 4079,1108C4089,1110 4091,1102 4086,1078ZM3977,483C3966,415 3955,399 3938,423C3928,435 3903,442 3845,446C3756,453 3758,453 3677,448L3619,444L3626,485C3629,507 3634,528 3637,533C3639,537 3719,540 3814,540L3987,540L3977,483Z" style="fill:white;fill-rule:nonzero;"/>
        <path d="M3768,1789C3747,1777 3744,1740 3762,1722C3801,1683 3862,1739 3825,1780C3805,1802 3793,1804 3768,1789Z" style="fill:white;fill-rule:nonzero;"/>
        <path d="M3556,1759C3533,1732 3530,1720 3530,1652C3530,1594 3535,1570 3548,1554C3613,1473 3740,1513 3740,1614C3740,1656 3709,1742 3685,1766C3648,1803 3590,1799 3556,1759ZM3652,1738C3673,1721 3703,1625 3695,1600C3679,1549 3626,1534 3590,1570C3574,1586 3570,1603 3570,1652C3570,1736 3606,1774 3652,1738Z" style="fill:white;fill-rule:nonzero;"/>
        <path d="M3410,1736C3382,1701 3421,1643 3458,1666C3493,1688 3480,1750 3440,1750C3430,1750 3417,1743 3410,1736Z" style="fill:white;fill-rule:nonzero;"/>
        <path d="M7705,1919C7480,1889 7310,1788 7238,1642C7206,1578 7205,1570 7205,1460C7205,1374 7210,1335 7223,1307C7267,1208 7367,1128 7499,1086C7541,1073 7656,1048 7756,1031C7986,991 8035,977 8077,935C8104,908 8110,894 8110,860C8110,779 8057,729 7944,705C7774,669 7549,705 7359,800L7283,837L7222,714C7188,645 7160,585 7160,579C7160,563 7315,494 7415,465C7695,384 7991,397 8199,498C8383,588 8477,765 8440,953C8424,1036 8402,1076 8341,1133C8256,1212 8134,1257 7894,1295C7701,1327 7619,1352 7572,1395C7539,1425 7535,1434 7535,1477C7535,1530 7555,1564 7605,1597C7665,1637 7709,1645 7855,1644C8011,1644 8101,1625 8210,1570L8270,1540L8335,1670L8400,1799L8377,1812C8332,1837 8282,1858 8229,1873C8082,1916 7839,1937 7705,1919Z" style="fill:white;fill-rule:nonzero;"/>
        <path d="M10092,1920C9917,1898 9751,1812 9626,1679C9349,1385 9369,895 9669,618C9792,505 9929,442 10105,419C10497,368 10848,572 10966,921C11015,1067 11014,1277 10964,1431C10902,1617 10744,1784 10554,1863C10429,1915 10241,1938 10092,1920ZM10299,1629C10457,1604 10579,1502 10631,1352C10660,1271 10666,1133 10646,1047C10613,905 10542,812 10423,753C10352,718 10339,715 10241,712C10152,709 10124,712 10071,730C9884,793 9780,950 9780,1170C9780,1323 9822,1431 9917,1521C10018,1617 10149,1654 10299,1629Z" style="fill:white;fill-rule:nonzero;"/>
        <path d="M12065,1919C11921,1897 11806,1846 11723,1768L11670,1717L11670,1910L11340,1910L11340,430L11690,430L11690,858C11690,1321 11692,1341 11746,1440C11798,1536 11891,1597 12020,1620C12202,1653 12363,1577 12422,1432C12445,1376 12445,1370 12448,902L12451,430L12801,430L12798,927C12794,1400 12793,1429 12772,1503C12714,1714 12575,1852 12368,1904C12292,1923 12140,1931 12065,1919Z" style="fill:white;fill-rule:nonzero;"/>
        <path d="M4683,1898C4686,1891 4828,1558 5000,1158L5312,430L5666,430L5980,1162C6152,1565 6295,1898 6297,1903C6300,1907 6227,1909 6135,1908L5969,1905L5736,1367C5608,1071 5499,829 5495,829C5490,829 5385,1072 5261,1369L5035,1910L4856,1910C4717,1910 4679,1907 4683,1898Z" style="fill:white;fill-rule:nonzero;"/>
        <rect x="6520" y="430" width="340" height="1480" style="fill:white;fill-rule:nonzero;"/>
        <rect x="8750" y="430" width="340" height="1480" style="fill:white;fill-rule:nonzero;"/>
        <path d="M468,1871C288,1832 149,1737 88,1612C56,1548 55,1541 55,1425C55,1315 57,1301 82,1255C116,1190 196,1115 264,1085C349,1048 413,1031 625,994C849,955 919,930 944,881C982,809 951,737 864,694C819,672 792,667 700,662C529,654 359,690 208,766C171,785 138,800 135,800C132,800 101,742 66,671L1,542L68,507C148,466 255,429 370,404C498,376 785,378 895,408C1001,437 1107,490 1167,544C1265,632 1313,775 1290,907C1255,1110 1110,1205 754,1260C581,1286 539,1296 472,1328C404,1359 377,1398 383,1458C395,1575 561,1637 793,1610C898,1598 1022,1563 1076,1529C1093,1519 1110,1510 1114,1510C1117,1510 1149,1568 1184,1638C1258,1785 1261,1772 1141,1817C1014,1865 917,1881 730,1886C584,1889 541,1887 468,1871Z" style="fill:white;fill-rule:nonzero;"/>
        <path d="M2130,1884C1869,1834 1675,1698 1566,1490C1474,1314 1459,1083 1526,880C1595,675 1776,498 1990,426C2290,326 2619,388 2806,577C2856,629 2918,716 2909,724C2900,732 2679,861 2666,866C2656,870 2631,851 2594,811C2462,668 2254,633 2065,721C1999,752 1910,842 1878,910C1812,1051 1813,1230 1880,1367C1923,1454 1985,1514 2078,1558C2154,1594 2157,1595 2275,1595C2395,1595 2397,1595 2472,1557C2529,1529 2563,1504 2602,1460L2655,1401L2775,1471C2841,1510 2899,1545 2904,1550C2917,1563 2844,1665 2778,1724C2713,1784 2609,1839 2515,1865C2456,1882 2187,1894 2130,1884Z" style="fill:white;fill-rule:nonzero;"/>
    </g>
</svg>
